<svg width="73" height="83" viewBox="0 0 73 83" fill="none" xmlns="http://www.w3.org/2000/svg">
<path d="M5.53279 40.1295C6.07671 40.1295 6.60948 40.0225 7.12665 39.8664C7.41867 40.3189 7.72406 40.7715 8.04506 41.2218C3.08963 48.2392 1.76996 54.92 4.50069 59.6347C6.87475 63.7363 12.0174 65.9566 18.9011 65.9566C19.9555 65.9566 21.0768 65.8652 22.2092 65.7604C24.5387 70.8697 27.5168 74.5366 30.8918 76.4626C30.8784 76.6142 30.8338 76.7569 30.8338 76.9107C30.8338 79.9714 33.3238 82.4613 36.3845 82.4613C39.434 82.4613 41.9128 79.9714 41.9128 76.9107C41.9128 76.7636 41.8682 76.6254 41.8571 76.4805C45.2342 74.5344 48.2124 70.8608 50.5374 65.7604C51.6676 65.8652 52.7911 65.9566 53.8433 65.9566C60.727 65.9566 65.8696 63.7363 68.2437 59.6347C70.9833 54.9066 69.6681 48.228 64.706 41.2329C67.9517 36.6809 69.6325 32.2806 69.6191 28.404C71.4448 27.4789 72.6262 25.5997 72.6262 23.4976C72.6262 20.437 70.1385 17.947 67.0778 17.947C65.9922 17.947 64.9802 18.2591 64.1041 18.8275C60.7626 16.9015 56.1037 16.1615 50.5263 16.6809C48.2057 11.5805 45.2298 7.90462 41.8548 5.95856C41.866 5.81589 41.9106 5.67546 41.9106 5.52833C41.9106 2.47883 39.4317 0 36.3822 0C33.3216 0 30.8316 2.47883 30.8316 5.52833C30.8316 5.6866 30.874 5.82481 30.8896 5.98085C27.5146 7.92246 24.5387 11.5961 22.2114 16.6898C13.6893 15.8917 7.2381 18.0919 4.49846 22.8267C3.37496 24.7705 2.9581 27.0465 3.17656 29.5677C1.27063 30.4682 0 32.421 0 34.5944C0.00445833 37.6506 2.48329 40.1295 5.53279 40.1295ZM23.6136 19.095C26.7322 19.5119 30.0157 20.3255 33.4174 21.5204C31.2351 22.499 29.0483 23.5667 26.8904 24.8062C24.7839 26.0166 22.762 27.3764 20.7937 28.7986C21.4646 25.2854 22.4076 22.0353 23.6136 19.095ZM49.1353 19.0973C50.3413 22.0375 51.2842 25.2877 51.9552 28.8008C49.9868 27.3786 47.965 26.0188 45.8606 24.8106C43.7519 23.5913 41.5606 22.519 39.3448 21.5248C42.722 20.3367 46.0434 19.5119 49.1353 19.0973ZM49.1353 63.3663C45.9855 62.9294 42.6596 62.1001 39.3359 60.9254C41.5539 59.9289 43.7496 58.8567 45.8562 57.6373C47.9627 56.4269 49.9846 55.0671 51.9507 53.6471C51.2775 57.1603 50.3212 60.4595 49.1353 63.3663ZM44.7461 26.7411C47.4389 28.2881 50.0292 30.0425 52.4723 31.9328C52.8825 34.9823 53.1032 38.1009 53.1032 41.2218C53.1032 44.3337 52.8803 47.45 52.4701 50.5174C50.0292 52.4077 47.4367 54.1554 44.7416 55.7046C42.051 57.2606 39.2378 58.6293 36.3845 59.7974C33.5913 58.6605 30.7736 57.2963 28.0028 55.7024C25.31 54.1554 22.7197 52.401 20.2765 50.5107C19.8663 47.4768 19.6456 44.3582 19.6456 41.2218C19.6456 38.0942 19.8686 34.9779 20.2787 31.9239C22.7197 30.0336 25.3122 28.2859 28.0028 26.7389C30.7736 25.145 33.5913 23.7808 36.3845 22.6439C39.24 23.8142 42.051 25.1807 44.7461 26.7411ZM54.9244 33.9435C57.6351 36.2819 60.0136 38.7518 61.9285 41.2218C60.0047 43.7028 57.6284 46.1683 54.9244 48.4888C55.1674 46.0813 55.3346 43.6538 55.3346 41.224C55.3324 38.783 55.1674 36.3533 54.9244 33.9435ZM23.6136 63.3663C22.4254 60.4595 21.4691 57.1581 20.7959 53.6449C22.7642 55.0649 24.7861 56.4247 26.8904 57.6373C29.0505 58.879 31.2351 59.9467 33.4174 60.9231C30.0269 62.1135 26.7455 62.9316 23.6136 63.3663ZM17.8222 48.4978C15.1137 46.1616 12.7375 43.6939 10.8181 41.2195C12.7419 38.7385 15.1204 36.273 17.8244 33.9547C17.5814 36.3555 17.4165 38.7786 17.4165 41.2195C17.4143 43.6694 17.5792 46.0969 17.8222 48.4978ZM6.42892 58.5201C4.22427 54.7127 5.36338 49.1398 9.46281 43.0943C11.8346 46.059 14.8039 49.006 18.19 51.7122C18.8476 56.0011 19.9243 60.056 21.3153 63.607C14.0504 64.1465 8.64694 62.3453 6.42892 58.5201ZM36.3845 80.2322C34.5543 80.2322 33.063 78.7431 33.063 76.9107C33.063 76.6477 33.0964 76.3935 33.1655 76.126C33.5289 74.6436 34.853 73.6115 36.3845 73.6115C37.9003 73.6115 39.24 74.6726 39.5789 76.135C39.5811 76.1461 39.5855 76.1595 39.5878 76.1729C39.6546 76.4203 39.6859 76.6566 39.6859 76.9107C39.6836 78.7431 38.2035 80.2322 36.3845 80.2322ZM41.2128 74.2781C40.2677 72.5482 38.4264 71.3824 36.3845 71.3824C34.3113 71.3824 32.4834 72.5259 31.5338 74.2602C28.9145 72.5861 26.4847 69.5322 24.5342 65.4751C28.3193 64.8955 32.2895 63.8121 36.3822 62.2027C40.3457 63.7831 44.3849 64.8888 48.2124 65.4729C46.2641 69.5277 43.8343 72.5861 41.2128 74.2781ZM66.3177 58.5201C64.1019 62.3476 58.694 64.1465 51.4313 63.607C52.8201 60.0582 53.8946 56.0056 54.5522 51.6988C57.936 49.0149 60.9031 46.0702 63.2816 43.092C67.3922 49.1219 68.529 54.6971 66.3177 58.5201ZM70.4015 23.4999C70.4015 24.9176 69.501 26.1682 68.1389 26.6163C66.0212 27.3586 63.7809 25.6689 63.7809 23.4999C63.7809 22.5257 64.1933 21.6162 64.92 20.9921C65.5219 20.4593 66.2687 20.1784 67.0823 20.1784C68.9125 20.1784 70.4015 21.6675 70.4015 23.4999ZM62.4769 20.4615C61.8928 21.351 61.5517 22.3964 61.5517 23.4999C61.5517 26.5494 64.0306 29.0282 67.0801 29.0282C67.1826 29.0282 67.2874 29.0081 67.3922 29.0015C67.2339 32.0866 65.8072 35.6845 63.2927 39.3671C60.9209 36.3978 57.9494 33.4442 54.5544 30.7313C53.8923 26.4 52.8335 22.421 51.4246 18.8431C55.9432 18.5043 59.7171 19.0527 62.4769 20.4615ZM36.3845 2.23362C38.2035 2.23362 39.6836 3.71379 39.6836 5.53279C39.6836 5.78692 39.6524 6.02321 39.5766 6.31077C39.2423 7.78425 37.8981 8.85425 36.3822 8.85425C34.8486 8.85425 33.5244 7.81323 33.1589 6.29517C33.0942 6.04996 33.063 5.79583 33.063 5.53279C33.063 3.71379 34.5543 2.23362 36.3845 2.23362ZM31.536 8.18773C32.4879 9.93762 34.3113 11.0834 36.3845 11.0834C38.4375 11.0834 40.2855 9.90419 41.2217 8.17212C43.8432 9.86629 46.2663 12.9269 48.2102 16.984C44.4362 17.5458 40.4727 18.6247 36.3822 20.2408C32.2694 18.6247 28.3015 17.5458 24.5364 16.984C26.487 12.9336 28.9145 9.87744 31.536 8.18773ZM21.3131 18.8588C19.9109 22.4321 18.8543 26.4045 18.1922 30.7469C14.8128 33.4286 11.848 36.3733 9.46504 39.3515C9.34467 39.1754 9.22429 39.0015 9.10838 38.8254C9.14627 38.792 9.17525 38.7518 9.21315 38.7162C9.32683 38.6159 9.42046 38.5044 9.523 38.3952C9.74369 38.1678 9.94208 37.927 10.1182 37.6662C10.2074 37.5325 10.2921 37.3987 10.3701 37.2583C10.5239 36.9796 10.6465 36.6899 10.7513 36.3889C10.7981 36.2529 10.856 36.1236 10.8917 35.9832C11.0076 35.5374 11.0834 35.0782 11.0834 34.6011C11.0834 34.2133 11.0411 33.8343 10.9653 33.4665C10.9564 33.4264 10.9385 33.3907 10.9296 33.3506C10.515 31.5605 9.23767 30.1071 7.55688 29.4428C7.5435 29.4384 7.53012 29.4361 7.51898 29.4317C7.20021 29.3091 6.87029 29.211 6.52477 29.1486C6.41331 29.1285 6.2974 29.1285 6.18594 29.1151C5.96971 29.0884 5.75794 29.0483 5.53502 29.0483C5.50381 29.0483 5.47929 29.0594 5.45031 29.0594C5.42356 29.0594 5.39681 29.0527 5.36783 29.0527C5.36115 28.939 5.34331 28.8187 5.34108 28.705C5.3344 28.4977 5.33663 28.2948 5.34331 28.092C5.35223 27.7754 5.37452 27.4678 5.41019 27.1646C5.43248 26.9707 5.45477 26.7768 5.49044 26.5895C5.5484 26.2752 5.62865 25.9743 5.71781 25.6755C5.76463 25.5195 5.80029 25.359 5.85602 25.2074C6.01652 24.7683 6.20154 24.3447 6.43338 23.9435C8.64694 20.1205 14.0348 18.3126 21.3131 18.8588ZM4.66565 31.3911C4.91531 31.3176 5.2051 31.2797 5.53279 31.2797C7.36294 31.2797 8.85425 32.7688 8.85425 34.6011C8.85425 35.8361 8.16321 36.9596 7.0464 37.5347C6.57827 37.7777 6.07002 37.9003 5.53056 37.9003C3.71156 37.9003 2.2314 36.4201 2.2314 34.6011C2.23363 33.1076 3.2256 31.7901 4.66565 31.3911Z" fill="#010101"/>
<path d="M35.963 52.9261C42.0085 52.9261 46.9261 48.0063 46.9261 41.963C46.9261 35.9198 42.0085 31 35.963 31C29.9175 31 25 35.9175 25 41.963C25 48.0085 29.9175 52.9261 35.963 52.9261ZM35.963 33.2269C40.778 33.2269 44.6969 37.1458 44.6969 41.9608C44.6969 46.778 40.778 50.6947 35.963 50.6947C31.148 50.6947 27.2292 46.7758 27.2292 41.9608C27.2292 37.1458 31.148 33.2269 35.963 33.2269Z" fill="#010101"/>
</svg>
