<svg width="67" height="60" viewBox="0 0 67 60" fill="none" xmlns="http://www.w3.org/2000/svg">
<path fill-rule="evenodd" clip-rule="evenodd" d="M0 10C0 4.47717 4.49955 0 10.05 0H56.95C62.5006 0 67 4.47717 67 10V40C67 45.523 62.5006 50 56.95 50H36.85V53.3333H43.55C45.4002 53.3333 46.9 54.8257 46.9 56.6667C46.9 58.5077 45.4002 60 43.55 60H23.45C21.5999 60 20.1 58.5077 20.1 56.6667C20.1 54.8257 21.5999 53.3333 23.45 53.3333H30.15V50H10.05C4.49955 50 0 45.523 0 40V10ZM10.05 6.66667C8.19986 6.66667 6.7 8.15907 6.7 10V40C6.7 41.841 8.19986 43.3333 10.05 43.3333H56.95C58.8002 43.3333 60.3 41.841 60.3 40V10C60.3 8.15907 58.8002 6.66667 56.95 6.66667H10.05Z" fill="black"/>
</svg>
