<svg width="64" height="62" viewBox="0 0 64 62" fill="none" xmlns="http://www.w3.org/2000/svg">
<g clip-path="url(#clip0_103_30)">
<path d="M1.5318 62.0803H9.84664C10.9175 62.0803 11.7866 61.2131 11.7866 60.1403V45.9511C11.7866 44.8783 10.9175 44.0111 9.84664 44.0111H1.5318C0.460917 44.0111 -0.408203 44.8783 -0.408203 45.9511V60.1403C-0.408203 61.2112 0.460917 62.0803 1.5318 62.0803ZM3.4718 47.8892H7.90664V58.1983H3.4718V47.8892Z" fill="#231F20"/>
<path d="M26.4744 62.0802C27.5453 62.0802 28.4144 61.213 28.4144 60.1402V20.0986C28.4144 19.0257 27.5453 18.1586 26.4744 18.1586H18.1595C17.0887 18.1586 16.2195 19.0257 16.2195 20.0986V60.1402C16.2195 61.213 17.0887 62.0802 18.1595 62.0802H26.4744ZM20.0995 22.0386H24.5344V58.2002H20.0995V22.0386Z" fill="#231F20"/>
<path d="M43.1021 62.0802C44.173 62.0802 45.0421 61.213 45.0421 60.1402V33.3624C45.0421 32.2895 44.173 31.4224 43.1021 31.4224H34.7892C33.7183 31.4224 32.8492 32.2895 32.8492 33.3624V60.1402C32.8492 61.213 33.7183 62.0802 34.7892 62.0802H43.1021ZM36.7292 35.3024H41.164V58.2002H36.7292V35.3024Z" fill="#231F20"/>
<path d="M49.4769 1.94024V60.1402C49.4769 61.2131 50.346 62.0802 51.4169 62.0802H59.7318C60.8026 62.0802 61.6718 61.2131 61.6718 60.1402V1.94024C61.6718 0.867424 60.8026 0.000244141 59.7318 0.000244141H51.4169C50.346 0.000244141 49.4769 0.867424 49.4769 1.94024ZM53.3569 3.88024H57.7918V58.2002H53.3569V3.88024Z" fill="#231F20"/>
</g>
<defs>
<clipPath id="clip0_103_30">
<rect width="64" height="62" fill="white"/>
</clipPath>
</defs>
</svg>
