<svg width="302" height="302" viewBox="0 0 302 302" fill="none" xmlns="http://www.w3.org/2000/svg">
<path d="M248.333 297C238.008 297 228.105 292.898 220.803 285.597C213.502 278.295 209.4 268.392 209.4 258.067V5H4.99999V258.067C4.99999 268.392 9.10186 278.295 16.4033 285.597C23.7047 292.898 33.6076 297 43.9333 297H248.333ZM248.333 297C261.241 297 273.619 291.873 282.746 282.746C291.873 273.619 297 261.241 297 248.333V189.933H209.4" stroke="#498EFC" stroke-width="10" stroke-linecap="round" stroke-linejoin="round"/>
<path d="M170.467 258.067H5" stroke="#498EFC" stroke-width="10" stroke-linecap="round" stroke-linejoin="round"/>
<path d="M63.4 73.1333H151" stroke="#F1D17C" stroke-width="10" stroke-miterlimit="10" stroke-linecap="square"/>
<path d="M63.4 112.067H151" stroke="#F1D17C" stroke-width="10" stroke-miterlimit="10" stroke-linecap="square"/>
<path d="M63.4 151H151" stroke="#F1D17C" stroke-width="10" stroke-miterlimit="10" stroke-linecap="square"/>
<path d="M63.4 189.933H151" stroke="#F1D17C" stroke-width="10" stroke-miterlimit="10" stroke-linecap="square"/>
</svg>
