<svg width="84" height="72" viewBox="0 0 84 72" fill="none" xmlns="http://www.w3.org/2000/svg">
<g clip-path="url(#clip0_103_25)">
<path d="M16.0139 26.4422C14.3217 26.9356 12.6891 27.614 11.1457 28.4651L11.7058 38.2138L1.88322 37.6973C1.03136 39.2392 0.35231 40.8702 -0.141602 42.5608L7.1176 49.1245L-0.141602 55.5806C0.344542 57.274 1.02394 58.9059 1.88322 60.4442L11.7058 60.0568L11.2103 69.827C12.7543 70.6713 14.3869 71.3425 16.0785 71.8284L22.6484 64.5761L29.1106 71.8284C30.8049 71.3503 32.4384 70.6787 33.9788 69.827L33.4834 60.0568L43.2628 60.5518C44.1154 59.0128 44.7876 57.3809 45.2661 55.6882L38.0069 49.2321L45.2661 42.6684C44.7942 40.9424 44.1294 39.2749 43.2844 37.6973L33.5049 38.1922L34.0004 28.4436C32.4606 27.5851 30.8271 26.9063 29.1322 26.4207L22.67 33.673L16.0139 26.4422Z" stroke="black" stroke-width="3" stroke-linecap="round" stroke-linejoin="round"/>
<path d="M22.5623 57.515C27.1962 57.515 30.9528 53.7584 30.9528 49.1244C30.9528 44.4905 27.1962 40.7339 22.5623 40.7339C17.9283 40.7339 14.1717 44.4905 14.1717 49.1244C14.1717 53.7584 17.9283 57.515 22.5623 57.515Z" stroke="black" stroke-width="3" stroke-linecap="round" stroke-linejoin="round"/>
<path d="M54.527 -0.725342C52.8259 -0.24244 51.1843 0.42886 49.6327 1.27604L50.1501 11.0462L40.3614 10.5513C39.5081 12.0902 38.8352 13.7222 38.3562 15.4148L45.6007 21.8709L38.3562 28.4346C38.8355 30.1615 39.5081 31.8291 40.3614 33.4058L50.1501 32.9108L49.6327 42.6595C51.1833 43.5141 52.825 44.1926 54.527 44.6824L60.9954 37.4301L67.4637 44.6824C69.1576 44.1889 70.7917 43.5105 72.3365 42.6595L71.97 32.8893L81.7372 33.3843C82.5899 31.8424 83.2695 30.2113 83.7639 28.5207L76.4978 21.957L83.7639 15.5009C83.2773 13.8076 82.5973 12.1757 81.7372 10.6374L71.97 11.0462L72.4659 1.27604C70.9417 0.43472 69.3292 -0.236455 67.6578 -0.725342L61.1894 6.52698L54.527 -0.725342Z" stroke="black" stroke-width="3" stroke-linecap="round" stroke-linejoin="round"/>
<path d="M61.0601 30.3692C65.6941 30.3692 69.4507 26.5021 69.4507 21.7318C69.4507 16.9616 65.6941 13.0945 61.0601 13.0945C56.4261 13.0945 52.6696 16.9616 52.6696 21.7318C52.6696 26.5021 56.4261 30.3692 61.0601 30.3692Z" stroke="black" stroke-width="3" stroke-linecap="round" stroke-linejoin="round"/>
</g>
<defs>
<clipPath id="clip0_103_25">
<rect width="84" height="72" fill="white"/>
</clipPath>
</defs>
</svg>
